<svg width="42" height="48" viewBox="0 0 42 48" fill="none" xmlns="http://www.w3.org/2000/svg">
<path d="M33.7444 1C33.7403 1.26473 33.7356 1.52956 33.7309 1.79443C33.7188 2.4765 33.7066 3.15884 33.7058 3.84056C33.7058 4.85824 33.4969 5.81555 32.8957 6.65335C31.9807 7.92816 30.7227 8.58489 29.1618 8.58489C26.4407 8.59132 23.7196 8.58918 20.9988 8.58703C19.6386 8.58596 18.2783 8.58489 16.9183 8.58489C12.8923 8.58489 9.64731 11.2758 8.92057 15.2245C8.84578 15.6701 8.80783 16.1211 8.8071 16.573C8.79508 17.1512 8.79901 17.73 8.80301 18.3202C8.80504 18.6197 8.8071 18.9221 8.8071 19.2288H6.15124C5.38949 12.8584 8.32421 7.66016 14.4605 6.13546C15.2814 5.93265 16.1578 5.88798 17.0089 5.88195C19.6494 5.86505 22.29 5.86639 24.9305 5.86773C26.2505 5.8684 27.5714 5.86907 28.8914 5.86746C29.1468 5.87059 29.4018 5.84631 29.652 5.79503C30.0079 5.71693 30.328 5.52346 30.5627 5.2447C30.7974 4.96593 30.9334 4.61746 30.9497 4.25342C30.9626 3.52856 30.9583 2.8037 30.954 2.08099C30.9518 1.72044 30.9497 1.36042 30.9497 1.00121L33.7444 1Z" fill="white"/>
<path d="M39.889 1C39.892 1.18095 39.8957 1.36191 39.8993 1.54284C39.9401 3.57073 39.9808 5.59372 39.2105 7.54548C37.5627 11.7272 33.6767 14.3867 29.1062 14.3976C26.4254 14.404 23.7452 14.4019 21.0648 14.3997C19.7245 14.3987 18.3842 14.3976 17.0438 14.3976C15.7013 14.3976 15.0338 15.0845 15.0325 16.4378V19.2288H12.2439C12.2671 18.7879 12.2744 18.3442 12.2817 17.9009C12.298 16.9136 12.3142 15.9281 12.5059 14.9783C12.9127 12.9598 14.7621 11.679 16.9085 11.6753C19.6496 11.6697 22.3902 11.6716 25.1309 11.6735L25.135 11.6735C26.5042 11.6744 27.8733 11.6753 29.2426 11.6753C30.9641 11.6783 32.6395 11.1195 34.0145 10.0837C35.3896 9.0479 36.3891 7.59173 36.8613 5.93627C37.0421 5.25465 37.1461 4.55495 37.1715 3.85022C37.207 3.18776 37.197 2.52352 37.1869 1.85917C37.1826 1.57439 37.1783 1.28952 37.1776 1.00483L39.889 1Z" fill="white"/>
<path fill-rule="evenodd" clip-rule="evenodd" d="M32.1145 22.7998H1.3983C1.3983 23.182 1.39751 23.56 1.39672 23.9351C1.39494 24.7828 1.39319 25.6154 1.40072 26.4456C1.4064 27.1339 1.40288 27.8224 1.39937 28.5107C1.39093 30.1605 1.38251 31.8084 1.50092 33.4474C1.77857 37.2827 3.46021 40.5011 6.24524 43.14C6.58532 43.4623 6.94667 43.7616 7.33041 44.0794C7.51743 44.2343 7.70978 44.3936 7.90757 44.5621H1.43693V47.2361H32.0807V44.5392H25.6571C25.6888 44.4903 25.7252 44.4446 25.7658 44.4028C26.9971 43.5074 28.0946 42.4412 29.0253 41.2363C29.1466 41.1164 29.3098 41.0484 29.4804 41.0467C29.9258 41.0389 30.3728 41.0396 30.8206 41.0404C31.3365 41.0413 31.8534 41.0421 32.3704 41.0298C35.3812 40.9586 38.1252 39.0971 39.1417 36.2565C39.7259 34.6232 40.1195 32.9138 40.4925 31.2152C40.6243 30.6528 40.6418 30.0696 40.544 29.5002C40.4463 28.9308 40.2352 28.3868 39.9234 27.9005C39.6116 27.4142 39.2053 26.9954 38.7286 26.669C38.252 26.3425 37.7147 26.1151 37.1486 26.0001C36.5576 25.8774 35.9399 25.8758 35.3249 25.8743C35.1233 25.8738 34.922 25.8733 34.7221 25.8685C34.1563 25.8581 33.59 25.8615 33.0106 25.865C32.7159 25.8667 32.4177 25.8685 32.1145 25.8685V22.7998ZM4.13121 25.6413C4.13367 25.597 4.1363 25.5496 4.13867 25.4979L29.4067 25.4967V25.9337C29.4067 26.5961 29.4075 27.2585 29.4083 27.9209C29.41 29.2454 29.4116 30.5698 29.4067 31.8937C29.3862 37.8742 25.4736 42.8733 19.6428 44.2181C12.4105 45.8877 5.54748 41.2363 4.30888 34.0969C4.19143 33.3841 4.13168 32.6631 4.13022 31.9408C4.11289 30.4936 4.11608 29.0463 4.11926 27.5996C4.12051 27.0297 4.12176 26.4599 4.12176 25.8903C4.12176 25.8114 4.12614 25.7326 4.13121 25.6413ZM32.0614 38.3245H30.7274C32.2364 35.3158 32.1717 32.1551 32.1068 28.9848C32.1045 28.8732 32.1022 28.7616 32.1 28.6499C32.1493 28.6444 32.1919 28.6386 32.2302 28.6333C32.3004 28.6237 32.356 28.6161 32.4115 28.6161C32.8179 28.6161 33.2244 28.6143 33.6309 28.6124C34.4442 28.6086 35.2576 28.6049 36.0705 28.6161C37.3695 28.6379 38.0998 29.5602 37.8004 30.8108C37.4902 32.111 37.1679 33.4075 36.819 34.6968C36.225 36.8988 34.3551 38.3148 32.0614 38.3245Z" fill="white"/>
<path d="M33.7444 1C33.7403 1.26473 33.7356 1.52956 33.7309 1.79443C33.7188 2.4765 33.7066 3.15884 33.7058 3.84056C33.7058 4.85824 33.4969 5.81555 32.8957 6.65335C31.9807 7.92816 30.7227 8.58489 29.1618 8.58489C26.4407 8.59132 23.7196 8.58918 20.9988 8.58703C19.6386 8.58596 18.2783 8.58489 16.9183 8.58489C12.8923 8.58489 9.64731 11.2758 8.92057 15.2245C8.84578 15.6701 8.80783 16.1211 8.8071 16.573C8.79508 17.1512 8.79901 17.73 8.80301 18.3202C8.80504 18.6197 8.8071 18.9221 8.8071 19.2288H6.15124C5.38949 12.8584 8.32421 7.66016 14.4605 6.13546C15.2814 5.93265 16.1578 5.88798 17.0089 5.88195C19.6494 5.86505 22.29 5.86639 24.9305 5.86773C26.2505 5.8684 27.5714 5.86907 28.8914 5.86746C29.1468 5.87059 29.4018 5.84631 29.652 5.79503C30.0079 5.71693 30.328 5.52346 30.5627 5.2447C30.7974 4.96593 30.9334 4.61746 30.9497 4.25342C30.9626 3.52856 30.9583 2.8037 30.954 2.08099C30.9518 1.72044 30.9497 1.36042 30.9497 1.00121L33.7444 1Z" stroke="white"/>
<path d="M39.889 1C39.892 1.18095 39.8957 1.36191 39.8993 1.54284C39.9401 3.57073 39.9808 5.59372 39.2105 7.54548C37.5627 11.7272 33.6767 14.3867 29.1062 14.3976C26.4254 14.404 23.7452 14.4019 21.0648 14.3997C19.7245 14.3987 18.3842 14.3976 17.0438 14.3976C15.7013 14.3976 15.0338 15.0845 15.0325 16.4378V19.2288H12.2439C12.2671 18.7879 12.2744 18.3442 12.2817 17.9009C12.298 16.9136 12.3142 15.9281 12.5059 14.9783C12.9127 12.9598 14.7621 11.679 16.9085 11.6753C19.6496 11.6697 22.3902 11.6716 25.1309 11.6735L25.135 11.6735C26.5042 11.6744 27.8733 11.6753 29.2426 11.6753C30.9641 11.6783 32.6395 11.1195 34.0145 10.0837C35.3896 9.0479 36.3891 7.59173 36.8613 5.93627C37.0421 5.25465 37.1461 4.55495 37.1715 3.85022C37.207 3.18776 37.197 2.52352 37.1869 1.85917C37.1826 1.57439 37.1783 1.28952 37.1776 1.00483L39.889 1Z" stroke="white"/>
<path fill-rule="evenodd" clip-rule="evenodd" d="M32.1145 22.7998H1.3983C1.3983 23.182 1.39751 23.56 1.39672 23.9351C1.39494 24.7828 1.39319 25.6154 1.40072 26.4456C1.4064 27.1339 1.40288 27.8224 1.39937 28.5107C1.39093 30.1605 1.38251 31.8084 1.50092 33.4474C1.77857 37.2827 3.46021 40.5011 6.24524 43.14C6.58532 43.4623 6.94667 43.7616 7.33041 44.0794C7.51743 44.2343 7.70978 44.3936 7.90757 44.5621H1.43693V47.2361H32.0807V44.5392H25.6571C25.6888 44.4903 25.7252 44.4446 25.7658 44.4028C26.9971 43.5074 28.0946 42.4412 29.0253 41.2363C29.1466 41.1164 29.3098 41.0484 29.4804 41.0467C29.9258 41.0389 30.3728 41.0396 30.8206 41.0404C31.3365 41.0413 31.8534 41.0421 32.3704 41.0298C35.3812 40.9586 38.1252 39.0971 39.1417 36.2565C39.7259 34.6232 40.1195 32.9138 40.4925 31.2152C40.6243 30.6528 40.6418 30.0696 40.544 29.5002C40.4463 28.9308 40.2352 28.3868 39.9234 27.9005C39.6116 27.4142 39.2053 26.9954 38.7286 26.669C38.252 26.3425 37.7147 26.1151 37.1486 26.0001C36.5576 25.8774 35.9399 25.8758 35.3249 25.8743C35.1233 25.8738 34.922 25.8733 34.7221 25.8685C34.1563 25.8581 33.59 25.8615 33.0106 25.865C32.7159 25.8667 32.4177 25.8685 32.1145 25.8685V22.7998ZM4.13121 25.6413C4.13367 25.597 4.1363 25.5496 4.13867 25.4979L29.4067 25.4967V25.9337C29.4067 26.5961 29.4075 27.2585 29.4083 27.9209C29.41 29.2454 29.4116 30.5698 29.4067 31.8937C29.3862 37.8742 25.4736 42.8733 19.6428 44.2181C12.4105 45.8877 5.54748 41.2363 4.30888 34.0969C4.19143 33.3841 4.13168 32.6631 4.13022 31.9408C4.11289 30.4936 4.11608 29.0463 4.11926 27.5996C4.12051 27.0297 4.12176 26.4599 4.12176 25.8903C4.12176 25.8114 4.12614 25.7326 4.13121 25.6413ZM32.0614 38.3245H30.7274C32.2364 35.3158 32.1717 32.1551 32.1068 28.9848C32.1045 28.8732 32.1022 28.7616 32.1 28.6499C32.1493 28.6444 32.1919 28.6386 32.2302 28.6333C32.3004 28.6237 32.356 28.6161 32.4115 28.6161C32.8179 28.6161 33.2244 28.6143 33.6309 28.6124C34.4442 28.6086 35.2576 28.6049 36.0705 28.6161C37.3695 28.6379 38.0998 29.5602 37.8004 30.8108C37.4902 32.111 37.1679 33.4075 36.819 34.6968C36.225 36.8988 34.3551 38.3148 32.0614 38.3245Z" stroke="white"/>
</svg>
