<svg width="34" height="47" viewBox="0 0 34 47" fill="none" xmlns="http://www.w3.org/2000/svg">
<path fill-rule="evenodd" clip-rule="evenodd" d="M21.43 22.97C22.2639 23.3217 22.9743 23.9135 23.471 24.67C23.9448 25.408 24.1797 26.284 24.1757 27.298C24.1757 28.2993 23.9388 29.1721 23.465 29.9164C22.9709 30.6776 22.26 31.2731 21.424 31.626C20.5364 32.0214 19.4923 32.2191 18.2918 32.2191H15.1703V33.6154H21.1635V36.1509H15.1703V38.0838H12.6011V36.1509H10.7271V33.6154H12.6011V22.377H18.2978C19.4959 22.377 20.54 22.5746 21.43 22.97ZM18.1741 30.0449C19.2938 30.0457 20.1434 29.8084 20.7229 29.333C21.3032 28.8584 21.5933 28.18 21.5933 27.298C21.5917 26.416 21.3015 25.7377 20.7229 25.2631C20.1442 24.7885 19.2946 24.5512 18.1741 24.5512H15.1727V30.0449H18.1741Z" fill="white"/>
<path fill-rule="evenodd" clip-rule="evenodd" d="M0.00968933 36.3372C0.0160923 39.5723 0.0192938 42.807 0.0192938 46.0413L33.6409 46.0377C33.6409 44.007 33.6435 41.9763 33.6461 39.9456C33.6521 35.2076 33.6582 30.4695 33.6313 25.7315C33.6121 22.4648 32.4223 19.6003 30.2973 17.1319C28.5457 15.0982 26.3571 13.7175 23.7651 12.93C24.6679 11.2396 24.5659 9.59604 23.537 8.0173C26.9033 5.99317 27.7593 2.8189 27.3992 0.0576172H6.22497C5.93083 3.51282 7.13019 6.20807 10.1436 8.02931C9.64467 8.73601 9.35128 9.56712 9.29599 10.4304C9.24437 11.3164 9.48928 12.1388 9.90467 12.9276C9.84128 12.9479 9.7831 12.967 9.72801 12.985C9.64331 13.0127 9.56592 13.038 9.48808 13.062C4.05556 14.7656 0.0997312 20.0097 0.0252967 25.6907C-0.00736411 28.2305 -0.00125956 30.7715 0.00484477 33.3125C0.00726707 34.3208 0.00968933 35.329 0.00968933 36.3372ZM30.948 43.3173H2.71094V42.8394C2.71094 41.1579 2.70588 39.4764 2.70082 37.7949C2.68917 33.9204 2.67752 30.0459 2.72775 26.1721C2.78898 21.4671 5.05443 18.0852 9.29239 16.049C10.6235 15.4215 12.0792 15.1026 13.5508 15.1162C14.2747 15.1162 14.9986 15.1147 15.7226 15.1133C17.1704 15.1103 18.6183 15.1074 20.0662 15.1162C25.351 15.145 29.9215 19.0456 30.7751 24.2596C30.88 24.8785 30.9354 25.5048 30.9408 26.1325C30.9456 31.7191 30.948 37.3049 30.948 42.8899V43.3173ZM9.17136 2.94527C9.14988 2.87817 9.12693 2.80653 9.0991 2.72885L24.5671 2.73006C23.9824 4.45525 22.8563 5.57057 21.1251 6.04119C20.6902 6.15319 20.2428 6.20926 19.7937 6.20807C17.8163 6.22367 15.839 6.23808 13.8629 6.20807C11.7547 6.17565 10.2144 5.208 9.30079 3.28711C9.2474 3.18268 9.21198 3.07209 9.17136 2.94527ZM15.9891 8.91349C16.2708 8.91501 16.5526 8.91652 16.8343 8.91652C17.0322 8.91652 17.23 8.91642 17.4278 8.91633C18.2189 8.91594 19.0095 8.91556 19.8009 8.92132C20.8682 8.92492 21.6473 9.64046 21.6689 10.6333C21.6893 11.607 20.9294 12.3753 19.8489 12.3969C18.9524 12.4155 18.056 12.4115 17.16 12.4075C16.7828 12.4058 16.4057 12.4041 16.0287 12.4041C15.8155 12.4041 15.6023 12.4057 15.3892 12.4073C14.8378 12.4114 14.2867 12.4155 13.7369 12.3921C12.8857 12.3549 12.229 11.8147 12.0621 11.0811C11.8868 10.2996 12.1977 9.5132 12.8833 9.16023C13.176 9.01539 13.4968 8.93592 13.8233 8.92733C14.5452 8.90574 15.2672 8.90962 15.9891 8.91349Z" fill="white"/>
</svg>
