<svg width="45" height="44" viewBox="0 0 45 44" fill="none" xmlns="http://www.w3.org/2000/svg">
<path d="M44.0119 22.0321C44.0029 34.1817 34.1204 44.0239 21.9439 44C9.82278 43.985 -0.0149271 34.098 1.70033e-05 21.9469C0.0149611 9.79588 9.89899 -0.0164179 22.0934 2.06244e-05C34.1832 0.0164591 44.0194 9.90348 44.0119 22.0321ZM30.0735 20.7365C30.223 19.517 29.6581 14.6542 29.2531 13.5992C24.4028 13.9107 19.5374 13.9107 14.6871 13.5992C14.202 15.9493 13.9329 18.3388 13.8831 20.738L30.0735 20.7365ZM14.587 30.4143C19.4947 30.0943 24.418 30.0898 29.3263 30.4008C29.8064 28.057 30.0755 25.6748 30.1303 23.2829H13.7755C14.0475 25.677 14.3135 28.0098 14.587 30.4143ZM28.7151 32.8621C24.2631 32.5849 19.7981 32.5849 15.3461 32.8621C15.5867 34.2997 16.6687 36.8627 17.8403 38.5259C18.3711 39.308 19.0083 40.0122 19.7337 40.6181C21.3327 41.9018 23.0035 41.8256 24.5353 40.4567C26.7858 38.4378 27.8319 35.7374 28.7151 32.8621ZM28.7151 11.1394C28.1982 9.12752 27.3438 7.21797 26.1881 5.49198C25.7186 4.80419 25.176 4.16934 24.5696 3.59856C23.8971 2.96493 23.0917 2.5181 22.1188 2.49569C20.8844 2.46879 19.9355 3.06356 19.1046 3.89147C17.7133 5.27828 16.7912 6.96099 16.1053 8.78118C15.8198 9.53884 15.5628 10.3055 15.2684 11.1379C19.7438 11.4164 24.2322 11.4169 28.7076 11.1394H28.7151ZM2.5435 20.72H11.2843C11.5518 18.2632 11.8163 15.8482 12.0778 13.4497C9.80634 13.1508 7.50046 12.852 5.19309 12.5635C5.12055 12.566 5.04964 12.5858 4.98623 12.6211C4.92282 12.6565 4.86874 12.7064 4.82846 12.7668C3.4911 15.2175 2.7109 17.9331 2.5435 20.72ZM31.9296 13.4228C32.1986 15.8751 32.4616 18.2916 32.7276 20.7275H41.4669C41.3012 17.9236 40.514 15.1917 39.1625 12.7294C39.1073 12.6278 38.8741 12.5635 38.7337 12.58C38.1434 12.6427 37.559 12.7533 36.9688 12.8251C35.2816 13.0298 33.5929 13.2256 31.9296 13.4228ZM2.55994 23.271C2.65857 25.8429 3.55522 28.9886 4.78064 31.1824C4.91513 31.423 5.04664 31.4813 5.30966 31.435C6.43644 31.2676 7.56622 31.1181 8.69749 30.9777C9.82876 30.8372 10.9884 30.7146 12.0793 30.5906C11.8118 28.1293 11.5488 25.7009 11.2843 23.268L2.55994 23.271ZM32.7291 23.2785C32.4646 25.7442 32.1941 28.1592 31.9311 30.5503C34.2101 30.8491 36.5159 31.148 38.8233 31.4469C38.8965 31.4435 38.9679 31.4227 39.0316 31.3864C39.0952 31.35 39.1493 31.299 39.1894 31.2377C40.526 28.7846 41.3052 26.067 41.4714 23.2785H32.7291ZM27.8768 40.6136C31.7187 39.3995 35.0911 37.0271 37.5321 33.8215C37.4776 33.7924 37.4199 33.7693 37.3603 33.7528C35.4176 33.5286 33.4748 33.3045 31.5231 33.0803C31.2153 33.0444 31.2093 33.2492 31.1361 33.4494C30.6384 34.7944 30.1931 36.1782 29.6043 37.4843C29.1231 38.5663 28.467 39.5631 27.8768 40.6151V40.6136ZM16.189 3.3744C12.169 4.68201 9.00235 6.93857 6.41104 10.2696C8.4539 10.4908 10.3832 10.694 12.3095 10.9152C12.6637 10.9555 12.8086 10.8524 12.9072 10.4968C13.5282 8.134 14.5421 5.89251 15.9065 3.86606C15.9783 3.7495 16.0425 3.62397 16.189 3.3744ZM37.5755 10.2352C35.0963 6.97426 31.6615 4.56804 27.7497 3.35198C29.4324 5.5936 30.4023 8.05041 31.145 10.6029C31.2287 10.9017 31.3632 10.9436 31.6217 10.9152C32.7545 10.7941 33.8888 10.691 35.02 10.564C35.8464 10.4714 36.6684 10.3533 37.5755 10.2352ZM6.48277 33.7498C8.21031 36.507 14.1715 40.6585 16.1337 40.4836C14.5466 38.3167 13.5932 35.8793 12.831 33.3478C12.7888 33.2768 12.7298 33.2172 12.6592 33.1742C12.5886 33.1312 12.5085 33.1062 12.426 33.1012C11.6893 33.1416 10.954 33.2118 10.2203 33.2955C8.99338 33.4345 7.76946 33.5929 6.48277 33.7498Z" fill="white"/>
</svg>
