<svg width="70" height="70" viewBox="0 0 70 70" fill="none" xmlns="http://www.w3.org/2000/svg">
<path d="M31.1218 0H28.7279V2.39394H31.1218V0Z" fill="#232F60"/>
<path d="M38.3036 0H35.9097V2.39394H38.3036V0Z" fill="#232F60"/>
<path d="M40.6976 0H38.3036V2.39394H40.6976V0Z" fill="#232F60"/>
<path d="M21.5461 2.39395H19.1521V4.78789H21.5461V2.39395Z" fill="#232F60"/>
<path d="M26.3339 2.39395H23.94V4.78789H26.3339V2.39395Z" fill="#232F60"/>
<path d="M28.7279 2.39395H26.334V4.78789H28.7279V2.39395Z" fill="#232F60"/>
<path d="M33.5158 2.39395H31.1218V4.78789H33.5158V2.39395Z" fill="#232F60"/>
<path d="M35.9097 2.39395H33.5158V4.78789H35.9097V2.39395Z" fill="#232F60"/>
<path d="M40.6976 2.39395H38.3036V4.78789H40.6976V2.39395Z" fill="#232F60"/>
<path d="M45.4855 2.39395H43.0915V4.78789H45.4855V2.39395Z" fill="#232F60"/>
<path d="M50.2733 2.39395H47.8794V4.78789H50.2733V2.39395Z" fill="#232F60"/>
<path d="M21.5459 4.78705H19.152V7.18099H21.5459V4.78705Z" fill="#232F60"/>
<path d="M23.9397 4.78705H21.5457V7.18099H23.9397V4.78705Z" fill="#232F60"/>
<path d="M26.3344 4.78705H23.9405V7.18099H26.3344V4.78705Z" fill="#232F60"/>
<path d="M31.1219 4.78705H28.7279V7.18099H31.1219V4.78705Z" fill="#232F60"/>
<path d="M33.5156 4.78705H31.1216V7.18099H33.5156V4.78705Z" fill="#232F60"/>
<path d="M38.304 4.78705H35.9101V7.18099H38.304V4.78705Z" fill="#232F60"/>
<path d="M45.4852 4.78705H43.0913V7.18099H45.4852V4.78705Z" fill="#232F60"/>
<path d="M50.2737 4.78705H47.8797V7.18099H50.2737V4.78705Z" fill="#232F60"/>
<path d="M21.5461 7.18182H19.1521V9.57576H21.5461V7.18182Z" fill="#232F60"/>
<path d="M23.94 7.18182H21.5461V9.57576H23.94V7.18182Z" fill="#232F60"/>
<path d="M31.1218 7.18182H28.7279V9.57576H31.1218V7.18182Z" fill="#232F60"/>
<path d="M40.6976 7.18182H38.3036V9.57576H40.6976V7.18182Z" fill="#232F60"/>
<path d="M43.0915 7.18182H40.6976V9.57576H43.0915V7.18182Z" fill="#232F60"/>
<path d="M45.4855 7.18182H43.0915V9.57576H45.4855V7.18182Z" fill="#232F60"/>
<path d="M50.2733 7.18182H47.8794V9.57576H50.2733V7.18182Z" fill="#232F60"/>
<path d="M23.9397 9.57648H21.5457V11.9704H23.9397V9.57648Z" fill="#232F60"/>
<path d="M26.3344 9.57648H23.9405V11.9704H26.3344V9.57648Z" fill="#232F60"/>
<path d="M28.7281 9.57648H26.3342V11.9704H28.7281V9.57648Z" fill="#232F60"/>
<path d="M31.1219 9.57648H28.7279V11.9704H31.1219V9.57648Z" fill="#232F60"/>
<path d="M38.304 9.57648H35.9101V11.9704H38.304V9.57648Z" fill="#232F60"/>
<path d="M40.6978 9.57648H38.3038V11.9704H40.6978V9.57648Z" fill="#232F60"/>
<path d="M43.0915 9.57648H40.6976V11.9704H43.0915V9.57648Z" fill="#232F60"/>
<path d="M45.4852 9.57648H43.0913V11.9704H45.4852V9.57648Z" fill="#232F60"/>
<path d="M47.879 9.57648H45.485V11.9704H47.879V9.57648Z" fill="#232F60"/>
<path d="M50.2737 9.57648H47.8797V11.9704H50.2737V9.57648Z" fill="#232F60"/>
<path d="M23.94 11.9697H21.5461V14.3636H23.94V11.9697Z" fill="#232F60"/>
<path d="M26.3339 11.9697H23.94V14.3636H26.3339V11.9697Z" fill="#232F60"/>
<path d="M28.7279 11.9697H26.334V14.3636H28.7279V11.9697Z" fill="#232F60"/>
<path d="M31.1218 11.9697H28.7279V14.3636H31.1218V11.9697Z" fill="#232F60"/>
<path d="M38.3036 11.9697H35.9097V14.3636H38.3036V11.9697Z" fill="#232F60"/>
<path d="M21.5461 14.3636H19.1521V16.7576H21.5461V14.3636Z" fill="#232F60"/>
<path d="M26.3339 14.3636H23.94V16.7576H26.3339V14.3636Z" fill="#232F60"/>
<path d="M31.1218 14.3636H28.7279V16.7576H31.1218V14.3636Z" fill="#232F60"/>
<path d="M35.9097 14.3636H33.5158V16.7576H35.9097V14.3636Z" fill="#232F60"/>
<path d="M40.6976 14.3636H38.3036V16.7576H40.6976V14.3636Z" fill="#232F60"/>
<path d="M45.4855 14.3636H43.0915V16.7576H45.4855V14.3636Z" fill="#232F60"/>
<path d="M50.2733 14.3636H47.8794V16.7576H50.2733V14.3636Z" fill="#232F60"/>
<path d="M21.5459 16.7567H19.152V19.1506H21.5459V16.7567Z" fill="#232F60"/>
<path d="M23.9397 16.7567H21.5457V19.1506H23.9397V16.7567Z" fill="#232F60"/>
<path d="M35.9093 16.7567H33.5154V19.1506H35.9093V16.7567Z" fill="#232F60"/>
<path d="M38.304 16.7567H35.9101V19.1506H38.304V16.7567Z" fill="#232F60"/>
<path d="M40.6978 16.7567H38.3038V19.1506H40.6978V16.7567Z" fill="#232F60"/>
<path d="M50.2737 16.7567H47.8797V19.1506H50.2737V16.7567Z" fill="#232F60"/>
<path d="M2.39455 19.1515H0.000610352V21.5455H2.39455V19.1515Z" fill="#232F60"/>
<path d="M16.7582 19.1515H14.3643V21.5455H16.7582V19.1515Z" fill="#232F60"/>
<path d="M21.5461 19.1515H19.1521V21.5455H21.5461V19.1515Z" fill="#232F60"/>
<path d="M23.94 19.1515H21.5461V21.5455H23.94V19.1515Z" fill="#232F60"/>
<path d="M28.7279 19.1515H26.334V21.5455H28.7279V19.1515Z" fill="#232F60"/>
<path d="M31.1218 19.1515H28.7279V21.5455H31.1218V19.1515Z" fill="#232F60"/>
<path d="M40.6976 19.1515H38.3036V21.5455H40.6976V19.1515Z" fill="#232F60"/>
<path d="M43.0915 19.1515H40.6976V21.5455H43.0915V19.1515Z" fill="#232F60"/>
<path d="M52.6673 19.1515H50.2733V21.5455H52.6673V19.1515Z" fill="#232F60"/>
<path d="M55.0612 19.1515H52.6673V21.5455H55.0612V19.1515Z" fill="#232F60"/>
<path d="M62.2431 19.1515H59.8491V21.5455H62.2431V19.1515Z" fill="#232F60"/>
<path d="M64.637 19.1515H62.243V21.5455H64.637V19.1515Z" fill="#232F60"/>
<path d="M67.0309 19.1515H64.637V21.5455H67.0309V19.1515Z" fill="#232F60"/>
<path d="M2.39415 21.5461H0.000213623V23.9401H2.39415V21.5461Z" fill="#232F60"/>
<path d="M4.78887 21.5461H2.39493V23.9401H4.78887V21.5461Z" fill="#232F60"/>
<path d="M7.18257 21.5461H4.78864V23.9401H7.18257V21.5461Z" fill="#232F60"/>
<path d="M11.9701 21.5461H9.57611V23.9401H11.9701V21.5461Z" fill="#232F60"/>
<path d="M14.3638 21.5461H11.9698V23.9401H14.3638V21.5461Z" fill="#232F60"/>
<path d="M19.1522 21.5461H16.7583V23.9401H19.1522V21.5461Z" fill="#232F60"/>
<path d="M21.5459 21.5461H19.152V23.9401H21.5459V21.5461Z" fill="#232F60"/>
<path d="M23.9397 21.5461H21.5457V23.9401H23.9397V21.5461Z" fill="#232F60"/>
<path d="M26.3344 21.5461H23.9405V23.9401H26.3344V21.5461Z" fill="#232F60"/>
<path d="M33.5156 21.5461H31.1216V23.9401H33.5156V21.5461Z" fill="#232F60"/>
<path d="M40.6978 21.5461H38.3038V23.9401H40.6978V21.5461Z" fill="#232F60"/>
<path d="M47.879 21.5461H45.485V23.9401H47.879V21.5461Z" fill="#232F60"/>
<path d="M57.4549 21.5461H55.0609V23.9401H57.4549V21.5461Z" fill="#232F60"/>
<path d="M59.8496 21.5461H57.4556V23.9401H59.8496V21.5461Z" fill="#232F60"/>
<path d="M64.637 21.5461H62.2431V23.9401H64.637V21.5461Z" fill="#232F60"/>
<path d="M67.0308 21.5461H64.6368V23.9401H67.0308V21.5461Z" fill="#232F60"/>
<path d="M2.39415 23.9389H0.000213623V26.3328H2.39415V23.9389Z" fill="#232F60"/>
<path d="M7.18257 23.9389H4.78864V26.3328H7.18257V23.9389Z" fill="#232F60"/>
<path d="M9.57631 23.9389H7.18237V26.3328H9.57631V23.9389Z" fill="#232F60"/>
<path d="M11.9701 23.9389H9.57611V26.3328H11.9701V23.9389Z" fill="#232F60"/>
<path d="M14.3638 23.9389H11.9698V26.3328H14.3638V23.9389Z" fill="#232F60"/>
<path d="M16.7585 23.9389H14.3646V26.3328H16.7585V23.9389Z" fill="#232F60"/>
<path d="M23.9397 23.9389H21.5457V26.3328H23.9397V23.9389Z" fill="#232F60"/>
<path d="M26.3344 23.9389H23.9405V26.3328H26.3344V23.9389Z" fill="#232F60"/>
<path d="M28.7281 23.9389H26.3342V26.3328H28.7281V23.9389Z" fill="#232F60"/>
<path d="M31.1219 23.9389H28.7279V26.3328H31.1219V23.9389Z" fill="#232F60"/>
<path d="M33.5156 23.9389H31.1216V26.3328H33.5156V23.9389Z" fill="#232F60"/>
<path d="M35.9093 23.9389H33.5154V26.3328H35.9093V23.9389Z" fill="#232F60"/>
<path d="M38.304 23.9389H35.9101V26.3328H38.304V23.9389Z" fill="#232F60"/>
<path d="M40.6978 23.9389H38.3038V26.3328H40.6978V23.9389Z" fill="#232F60"/>
<path d="M45.4852 23.9389H43.0913V26.3328H45.4852V23.9389Z" fill="#232F60"/>
<path d="M52.6674 23.9389H50.2735V26.3328H52.6674V23.9389Z" fill="#232F60"/>
<path d="M57.4549 23.9389H55.0609V26.3328H57.4549V23.9389Z" fill="#232F60"/>
<path d="M2.39455 26.3333H0.000610352V28.7273H2.39455V26.3333Z" fill="#232F60"/>
<path d="M9.57637 26.3333H7.18243V28.7273H9.57637V26.3333Z" fill="#232F60"/>
<path d="M14.3642 26.3333H11.9703V28.7273H14.3642V26.3333Z" fill="#232F60"/>
<path d="M19.1521 26.3333H16.7582V28.7273H19.1521V26.3333Z" fill="#232F60"/>
<path d="M23.94 26.3333H21.5461V28.7273H23.94V26.3333Z" fill="#232F60"/>
<path d="M26.3339 26.3333H23.94V28.7273H26.3339V26.3333Z" fill="#232F60"/>
<path d="M33.5158 26.3333H31.1218V28.7273H33.5158V26.3333Z" fill="#232F60"/>
<path d="M45.4855 26.3333H43.0915V28.7273H45.4855V26.3333Z" fill="#232F60"/>
<path d="M47.8794 26.3333H45.4855V28.7273H47.8794V26.3333Z" fill="#232F60"/>
<path d="M50.2733 26.3333H47.8794V28.7273H50.2733V26.3333Z" fill="#232F60"/>
<path d="M52.6673 26.3333H50.2733V28.7273H52.6673V26.3333Z" fill="#232F60"/>
<path d="M59.8491 26.3333H57.4552V28.7273H59.8491V26.3333Z" fill="#232F60"/>
<path d="M62.2431 26.3333H59.8491V28.7273H62.2431V26.3333Z" fill="#232F60"/>
<path d="M2.39415 28.7263H0.000213623V31.1203H2.39415V28.7263Z" fill="#232F60"/>
<path d="M4.78887 28.7263H2.39493V31.1203H4.78887V28.7263Z" fill="#232F60"/>
<path d="M7.18257 28.7263H4.78864V31.1203H7.18257V28.7263Z" fill="#232F60"/>
<path d="M11.9701 28.7263H9.57611V31.1203H11.9701V28.7263Z" fill="#232F60"/>
<path d="M14.3638 28.7263H11.9698V31.1203H14.3638V28.7263Z" fill="#232F60"/>
<path d="M16.7585 28.7263H14.3646V31.1203H16.7585V28.7263Z" fill="#232F60"/>
<path d="M19.1522 28.7263H16.7583V31.1203H19.1522V28.7263Z" fill="#232F60"/>
<path d="M33.5156 28.7263H31.1216V31.1203H33.5156V28.7263Z" fill="#232F60"/>
<path d="M38.304 28.7263H35.9101V31.1203H38.304V28.7263Z" fill="#232F60"/>
<path d="M40.6978 28.7263H38.3038V31.1203H40.6978V28.7263Z" fill="#232F60"/>
<path d="M50.2737 28.7263H47.8797V31.1203H50.2737V28.7263Z" fill="#232F60"/>
<path d="M55.0611 28.7263H52.6672V31.1203H55.0611V28.7263Z" fill="#232F60"/>
<path d="M69.4245 28.7263H67.0306V31.1203H69.4245V28.7263Z" fill="#232F60"/>
<path d="M2.39455 31.1212H0.000610352V33.5152H2.39455V31.1212Z" fill="#232F60"/>
<path d="M4.7885 31.1212H2.39456V33.5152H4.7885V31.1212Z" fill="#232F60"/>
<path d="M11.9703 31.1212H9.57639V33.5152H11.9703V31.1212Z" fill="#232F60"/>
<path d="M19.1521 31.1212H16.7582V33.5152H19.1521V31.1212Z" fill="#232F60"/>
<path d="M26.3339 31.1212H23.94V33.5152H26.3339V31.1212Z" fill="#232F60"/>
<path d="M28.7279 31.1212H26.334V33.5152H28.7279V31.1212Z" fill="#232F60"/>
<path d="M31.1218 31.1212H28.7279V33.5152H31.1218V31.1212Z" fill="#232F60"/>
<path d="M40.6976 31.1212H38.3036V33.5152H40.6976V31.1212Z" fill="#232F60"/>
<path d="M43.0915 31.1212H40.6976V33.5152H43.0915V31.1212Z" fill="#232F60"/>
<path d="M45.4855 31.1212H43.0915V33.5152H45.4855V31.1212Z" fill="#232F60"/>
<path d="M47.8794 31.1212H45.4855V33.5152H47.8794V31.1212Z" fill="#232F60"/>
<path d="M50.2733 31.1212H47.8794V33.5152H50.2733V31.1212Z" fill="#232F60"/>
<path d="M52.6673 31.1212H50.2733V33.5152H52.6673V31.1212Z" fill="#232F60"/>
<path d="M55.0612 31.1212H52.6673V33.5152H55.0612V31.1212Z" fill="#232F60"/>
<path d="M57.4552 31.1212H55.0612V33.5152H57.4552V31.1212Z" fill="#232F60"/>
<path d="M59.8491 31.1212H57.4552V33.5152H59.8491V31.1212Z" fill="#232F60"/>
<path d="M67.0309 31.1212H64.637V33.5152H67.0309V31.1212Z" fill="#232F60"/>
<path d="M69.4249 31.1212H67.0309V33.5152H69.4249V31.1212Z" fill="#232F60"/>
<path d="M7.18257 33.5157H4.78864V35.9097H7.18257V33.5157Z" fill="#232F60"/>
<path d="M9.57631 33.5157H7.18237V35.9097H9.57631V33.5157Z" fill="#232F60"/>
<path d="M11.9701 33.5157H9.57611V35.9097H11.9701V33.5157Z" fill="#232F60"/>
<path d="M16.7585 33.5157H14.3646V35.9097H16.7585V33.5157Z" fill="#232F60"/>
<path d="M23.9397 33.5157H21.5457V35.9097H23.9397V33.5157Z" fill="#232F60"/>
<path d="M26.3344 33.5157H23.9405V35.9097H26.3344V33.5157Z" fill="#232F60"/>
<path d="M28.7281 33.5157H26.3342V35.9097H28.7281V33.5157Z" fill="#232F60"/>
<path d="M31.1219 33.5157H28.7279V35.9097H31.1219V33.5157Z" fill="#232F60"/>
<path d="M43.0915 33.5157H40.6976V35.9097H43.0915V33.5157Z" fill="#232F60"/>
<path d="M45.4852 33.5157H43.0913V35.9097H45.4852V33.5157Z" fill="#232F60"/>
<path d="M50.2737 33.5157H47.8797V35.9097H50.2737V33.5157Z" fill="#232F60"/>
<path d="M62.2433 33.5157H59.8494V35.9097H62.2433V33.5157Z" fill="#232F60"/>
<path d="M64.637 33.5157H62.2431V35.9097H64.637V33.5157Z" fill="#232F60"/>
<path d="M2.39415 35.9085H0.000213623V38.3024H2.39415V35.9085Z" fill="#232F60"/>
<path d="M7.18257 35.9085H4.78864V38.3024H7.18257V35.9085Z" fill="#232F60"/>
<path d="M14.3638 35.9085H11.9698V38.3024H14.3638V35.9085Z" fill="#232F60"/>
<path d="M21.5459 35.9085H19.152V38.3024H21.5459V35.9085Z" fill="#232F60"/>
<path d="M23.9397 35.9085H21.5457V38.3024H23.9397V35.9085Z" fill="#232F60"/>
<path d="M28.7281 35.9085H26.3342V38.3024H28.7281V35.9085Z" fill="#232F60"/>
<path d="M38.304 35.9085H35.9101V38.3024H38.304V35.9085Z" fill="#232F60"/>
<path d="M50.2737 35.9085H47.8797V38.3024H50.2737V35.9085Z" fill="#232F60"/>
<path d="M52.6674 35.9085H50.2735V38.3024H52.6674V35.9085Z" fill="#232F60"/>
<path d="M55.0611 35.9085H52.6672V38.3024H55.0611V35.9085Z" fill="#232F60"/>
<path d="M59.8496 35.9085H57.4556V38.3024H59.8496V35.9085Z" fill="#232F60"/>
<path d="M64.637 35.9085H62.2431V38.3024H64.637V35.9085Z" fill="#232F60"/>
<path d="M69.4245 35.9085H67.0306V38.3024H69.4245V35.9085Z" fill="#232F60"/>
<path d="M2.39455 38.303H0.000610352V40.697H2.39455V38.303Z" fill="#232F60"/>
<path d="M4.7885 38.303H2.39456V40.697H4.7885V38.303Z" fill="#232F60"/>
<path d="M7.18245 38.303H4.78851V40.697H7.18245V38.303Z" fill="#232F60"/>
<path d="M9.57637 38.303H7.18243V40.697H9.57637V38.303Z" fill="#232F60"/>
<path d="M14.3642 38.303H11.9703V40.697H14.3642V38.303Z" fill="#232F60"/>
<path d="M16.7582 38.303H14.3643V40.697H16.7582V38.303Z" fill="#232F60"/>
<path d="M26.3339 38.303H23.94V40.697H26.3339V38.303Z" fill="#232F60"/>
<path d="M28.7279 38.303H26.334V40.697H28.7279V38.303Z" fill="#232F60"/>
<path d="M40.6976 38.303H38.3036V40.697H40.6976V38.303Z" fill="#232F60"/>
<path d="M43.0915 38.303H40.6976V40.697H43.0915V38.303Z" fill="#232F60"/>
<path d="M45.4855 38.303H43.0915V40.697H45.4855V38.303Z" fill="#232F60"/>
<path d="M47.8794 38.303H45.4855V40.697H47.8794V38.303Z" fill="#232F60"/>
<path d="M52.6673 38.303H50.2733V40.697H52.6673V38.303Z" fill="#232F60"/>
<path d="M62.2431 38.303H59.8491V40.697H62.2431V38.303Z" fill="#232F60"/>
<path d="M64.637 38.303H62.243V40.697H64.637V38.303Z" fill="#232F60"/>
<path d="M2.39415 40.6979H0.000213623V43.0918H2.39415V40.6979Z" fill="#232F60"/>
<path d="M4.78887 40.6979H2.39493V43.0918H4.78887V40.6979Z" fill="#232F60"/>
<path d="M7.18257 40.6979H4.78864V43.0918H7.18257V40.6979Z" fill="#232F60"/>
<path d="M11.9701 40.6979H9.57611V43.0918H11.9701V40.6979Z" fill="#232F60"/>
<path d="M14.3638 40.6979H11.9698V43.0918H14.3638V40.6979Z" fill="#232F60"/>
<path d="M19.1522 40.6979H16.7583V43.0918H19.1522V40.6979Z" fill="#232F60"/>
<path d="M23.9397 40.6979H21.5457V43.0918H23.9397V40.6979Z" fill="#232F60"/>
<path d="M26.3344 40.6979H23.9405V43.0918H26.3344V40.6979Z" fill="#232F60"/>
<path d="M28.7281 40.6979H26.3342V43.0918H28.7281V40.6979Z" fill="#232F60"/>
<path d="M33.5156 40.6979H31.1216V43.0918H33.5156V40.6979Z" fill="#232F60"/>
<path d="M35.9093 40.6979H33.5154V43.0918H35.9093V40.6979Z" fill="#232F60"/>
<path d="M43.0915 40.6979H40.6976V43.0918H43.0915V40.6979Z" fill="#232F60"/>
<path d="M45.4852 40.6979H43.0913V43.0918H45.4852V40.6979Z" fill="#232F60"/>
<path d="M47.879 40.6979H45.485V43.0918H47.879V40.6979Z" fill="#232F60"/>
<path d="M50.2737 40.6979H47.8797V43.0918H50.2737V40.6979Z" fill="#232F60"/>
<path d="M55.0611 40.6979H52.6672V43.0918H55.0611V40.6979Z" fill="#232F60"/>
<path d="M57.4549 40.6979H55.0609V43.0918H57.4549V40.6979Z" fill="#232F60"/>
<path d="M59.8496 40.6979H57.4556V43.0918H59.8496V40.6979Z" fill="#232F60"/>
<path d="M64.637 40.6979H62.2431V43.0918H64.637V40.6979Z" fill="#232F60"/>
<path d="M67.0308 40.6979H64.6368V43.0918H67.0308V40.6979Z" fill="#232F60"/>
<path d="M69.4245 40.6979H67.0306V43.0918H69.4245V40.6979Z" fill="#232F60"/>
<path d="M2.39455 43.0909H0.000610352V45.4849H2.39455V43.0909Z" fill="#232F60"/>
<path d="M4.7885 43.0909H2.39456V45.4849H4.7885V43.0909Z" fill="#232F60"/>
<path d="M9.57637 43.0909H7.18243V45.4849H9.57637V43.0909Z" fill="#232F60"/>
<path d="M14.3642 43.0909H11.9703V45.4849H14.3642V43.0909Z" fill="#232F60"/>
<path d="M16.7582 43.0909H14.3643V45.4849H16.7582V43.0909Z" fill="#232F60"/>
<path d="M21.5461 43.0909H19.1521V45.4849H21.5461V43.0909Z" fill="#232F60"/>
<path d="M28.7279 43.0909H26.334V45.4849H28.7279V43.0909Z" fill="#232F60"/>
<path d="M31.1218 43.0909H28.7279V45.4849H31.1218V43.0909Z" fill="#232F60"/>
<path d="M38.3036 43.0909H35.9097V45.4849H38.3036V43.0909Z" fill="#232F60"/>
<path d="M47.8794 43.0909H45.4855V45.4849H47.8794V43.0909Z" fill="#232F60"/>
<path d="M59.8491 43.0909H57.4552V45.4849H59.8491V43.0909Z" fill="#232F60"/>
<path d="M62.2431 43.0909H59.8491V45.4849H62.2431V43.0909Z" fill="#232F60"/>
<path d="M69.4249 43.0909H67.0309V45.4849H69.4249V43.0909Z" fill="#232F60"/>
<path d="M2.39415 45.4854H0.000213623V47.8793H2.39415V45.4854Z" fill="#232F60"/>
<path d="M9.57631 45.4854H7.18237V47.8793H9.57631V45.4854Z" fill="#232F60"/>
<path d="M19.1522 45.4854H16.7583V47.8793H19.1522V45.4854Z" fill="#232F60"/>
<path d="M26.3344 45.4854H23.9405V47.8793H26.3344V45.4854Z" fill="#232F60"/>
<path d="M28.7281 45.4854H26.3342V47.8793H28.7281V45.4854Z" fill="#232F60"/>
<path d="M31.1219 45.4854H28.7279V47.8793H31.1219V45.4854Z" fill="#232F60"/>
<path d="M33.5156 45.4854H31.1216V47.8793H33.5156V45.4854Z" fill="#232F60"/>
<path d="M45.4852 45.4854H43.0913V47.8793H45.4852V45.4854Z" fill="#232F60"/>
<path d="M47.879 45.4854H45.485V47.8793H47.879V45.4854Z" fill="#232F60"/>
<path d="M50.2737 45.4854H47.8797V47.8793H50.2737V45.4854Z" fill="#232F60"/>
<path d="M55.0611 45.4854H52.6672V47.8793H55.0611V45.4854Z" fill="#232F60"/>
<path d="M57.4549 45.4854H55.0609V47.8793H57.4549V45.4854Z" fill="#232F60"/>
<path d="M59.8496 45.4854H57.4556V47.8793H59.8496V45.4854Z" fill="#232F60"/>
<path d="M2.39415 47.8781H0.000213623V50.2721H2.39415V47.8781Z" fill="#232F60"/>
<path d="M7.18257 47.8781H4.78864V50.2721H7.18257V47.8781Z" fill="#232F60"/>
<path d="M9.57631 47.8781H7.18237V50.2721H9.57631V47.8781Z" fill="#232F60"/>
<path d="M16.7585 47.8781H14.3646V50.2721H16.7585V47.8781Z" fill="#232F60"/>
<path d="M19.1522 47.8781H16.7583V50.2721H19.1522V47.8781Z" fill="#232F60"/>
<path d="M21.5459 47.8781H19.152V50.2721H21.5459V47.8781Z" fill="#232F60"/>
<path d="M35.9093 47.8781H33.5154V50.2721H35.9093V47.8781Z" fill="#232F60"/>
<path d="M38.304 47.8781H35.9101V50.2721H38.304V47.8781Z" fill="#232F60"/>
<path d="M43.0915 47.8781H40.6976V50.2721H43.0915V47.8781Z" fill="#232F60"/>
<path d="M47.879 47.8781H45.485V50.2721H47.879V47.8781Z" fill="#232F60"/>
<path d="M50.2737 47.8781H47.8797V50.2721H50.2737V47.8781Z" fill="#232F60"/>
<path d="M52.6674 47.8781H50.2735V50.2721H52.6674V47.8781Z" fill="#232F60"/>
<path d="M55.0611 47.8781H52.6672V50.2721H55.0611V47.8781Z" fill="#232F60"/>
<path d="M57.4549 47.8781H55.0609V50.2721H57.4549V47.8781Z" fill="#232F60"/>
<path d="M59.8496 47.8781H57.4556V50.2721H59.8496V47.8781Z" fill="#232F60"/>
<path d="M64.637 47.8781H62.2431V50.2721H64.637V47.8781Z" fill="#232F60"/>
<path d="M67.0308 47.8781H64.6368V50.2721H67.0308V47.8781Z" fill="#232F60"/>
<path d="M69.4245 47.8781H67.0306V50.2721H69.4245V47.8781Z" fill="#232F60"/>
<path d="M21.5461 50.2727H19.1521V52.6667H21.5461V50.2727Z" fill="#232F60"/>
<path d="M26.3339 50.2727H23.94V52.6667H26.3339V50.2727Z" fill="#232F60"/>
<path d="M31.1218 50.2727H28.7279V52.6667H31.1218V50.2727Z" fill="#232F60"/>
<path d="M35.9097 50.2727H33.5158V52.6667H35.9097V50.2727Z" fill="#232F60"/>
<path d="M50.2733 50.2727H47.8794V52.6667H50.2733V50.2727Z" fill="#232F60"/>
<path d="M59.8491 50.2727H57.4552V52.6667H59.8491V50.2727Z" fill="#232F60"/>
<path d="M62.2431 50.2727H59.8491V52.6667H62.2431V50.2727Z" fill="#232F60"/>
<path d="M23.9397 52.6675H21.5457V55.0615H23.9397V52.6675Z" fill="#232F60"/>
<path d="M31.1219 52.6675H28.7279V55.0615H31.1219V52.6675Z" fill="#232F60"/>
<path d="M45.4852 52.6675H43.0913V55.0615H45.4852V52.6675Z" fill="#232F60"/>
<path d="M47.879 52.6675H45.485V55.0615H47.879V52.6675Z" fill="#232F60"/>
<path d="M50.2737 52.6675H47.8797V55.0615H50.2737V52.6675Z" fill="#232F60"/>
<path d="M55.0611 52.6675H52.6672V55.0615H55.0611V52.6675Z" fill="#232F60"/>
<path d="M59.8496 52.6675H57.4556V55.0615H59.8496V52.6675Z" fill="#232F60"/>
<path d="M62.2433 52.6675H59.8494V55.0615H62.2433V52.6675Z" fill="#232F60"/>
<path d="M64.637 52.6675H62.2431V55.0615H64.637V52.6675Z" fill="#232F60"/>
<path d="M28.7279 55.0606H26.334V57.4545H28.7279V55.0606Z" fill="#232F60"/>
<path d="M31.1218 55.0606H28.7279V57.4545H31.1218V55.0606Z" fill="#232F60"/>
<path d="M35.9097 55.0606H33.5158V57.4545H35.9097V55.0606Z" fill="#232F60"/>
<path d="M38.3036 55.0606H35.9097V57.4545H38.3036V55.0606Z" fill="#232F60"/>
<path d="M40.6976 55.0606H38.3036V57.4545H40.6976V55.0606Z" fill="#232F60"/>
<path d="M45.4855 55.0606H43.0915V57.4545H45.4855V55.0606Z" fill="#232F60"/>
<path d="M50.2733 55.0606H47.8794V57.4545H50.2733V55.0606Z" fill="#232F60"/>
<path d="M59.8491 55.0606H57.4552V57.4545H59.8491V55.0606Z" fill="#232F60"/>
<path d="M69.4249 55.0606H67.0309V57.4545H69.4249V55.0606Z" fill="#232F60"/>
<path d="M23.94 57.4545H21.5461V59.8485H23.94V57.4545Z" fill="#232F60"/>
<path d="M26.3339 57.4545H23.94V59.8485H26.3339V57.4545Z" fill="#232F60"/>
<path d="M31.1218 57.4545H28.7279V59.8485H31.1218V57.4545Z" fill="#232F60"/>
<path d="M33.5158 57.4545H31.1218V59.8485H33.5158V57.4545Z" fill="#232F60"/>
<path d="M35.9097 57.4545H33.5158V59.8485H35.9097V57.4545Z" fill="#232F60"/>
<path d="M40.6976 57.4545H38.3036V59.8485H40.6976V57.4545Z" fill="#232F60"/>
<path d="M47.8794 57.4545H45.4855V59.8485H47.8794V57.4545Z" fill="#232F60"/>
<path d="M50.2733 57.4545H47.8794V59.8485H50.2733V57.4545Z" fill="#232F60"/>
<path d="M52.6673 57.4545H50.2733V59.8485H52.6673V57.4545Z" fill="#232F60"/>
<path d="M55.0612 57.4545H52.6673V59.8485H55.0612V57.4545Z" fill="#232F60"/>
<path d="M57.4552 57.4545H55.0612V59.8485H57.4552V57.4545Z" fill="#232F60"/>
<path d="M59.8491 57.4545H57.4552V59.8485H59.8491V57.4545Z" fill="#232F60"/>
<path d="M62.2431 57.4545H59.8491V59.8485H62.2431V57.4545Z" fill="#232F60"/>
<path d="M23.9397 59.8478H21.5457V62.2417H23.9397V59.8478Z" fill="#232F60"/>
<path d="M26.3344 59.8478H23.9405V62.2417H26.3344V59.8478Z" fill="#232F60"/>
<path d="M28.7281 59.8478H26.3342V62.2417H28.7281V59.8478Z" fill="#232F60"/>
<path d="M35.9093 59.8478H33.5154V62.2417H35.9093V59.8478Z" fill="#232F60"/>
<path d="M43.0915 59.8478H40.6976V62.2417H43.0915V59.8478Z" fill="#232F60"/>
<path d="M45.4852 59.8478H43.0913V62.2417H45.4852V59.8478Z" fill="#232F60"/>
<path d="M47.879 59.8478H45.485V62.2417H47.879V59.8478Z" fill="#232F60"/>
<path d="M52.6674 59.8478H50.2735V62.2417H52.6674V59.8478Z" fill="#232F60"/>
<path d="M57.4549 59.8478H55.0609V62.2417H57.4549V59.8478Z" fill="#232F60"/>
<path d="M62.2433 59.8478H59.8494V62.2417H62.2433V59.8478Z" fill="#232F60"/>
<path d="M64.637 59.8478H62.2431V62.2417H64.637V59.8478Z" fill="#232F60"/>
<path d="M67.0308 59.8478H64.6368V62.2417H67.0308V59.8478Z" fill="#232F60"/>
<path d="M23.94 62.2424H21.5461V64.6364H23.94V62.2424Z" fill="#232F60"/>
<path d="M28.7279 62.2424H26.334V64.6364H28.7279V62.2424Z" fill="#232F60"/>
<path d="M35.9097 62.2424H33.5158V64.6364H35.9097V62.2424Z" fill="#232F60"/>
<path d="M38.3036 62.2424H35.9097V64.6364H38.3036V62.2424Z" fill="#232F60"/>
<path d="M45.4855 62.2424H43.0915V64.6364H45.4855V62.2424Z" fill="#232F60"/>
<path d="M47.8794 62.2424H45.4855V64.6364H47.8794V62.2424Z" fill="#232F60"/>
<path d="M55.0612 62.2424H52.6673V64.6364H55.0612V62.2424Z" fill="#232F60"/>
<path d="M57.4552 62.2424H55.0612V64.6364H57.4552V62.2424Z" fill="#232F60"/>
<path d="M59.8491 62.2424H57.4552V64.6364H59.8491V62.2424Z" fill="#232F60"/>
<path d="M62.2431 62.2424H59.8491V64.6364H62.2431V62.2424Z" fill="#232F60"/>
<path d="M64.637 62.2424H62.243V64.6364H64.637V62.2424Z" fill="#232F60"/>
<path d="M67.0309 62.2424H64.637V64.6364H67.0309V62.2424Z" fill="#232F60"/>
<path d="M23.9397 64.6372H21.5457V67.0311H23.9397V64.6372Z" fill="#232F60"/>
<path d="M28.7281 64.6372H26.3342V67.0311H28.7281V64.6372Z" fill="#232F60"/>
<path d="M31.1219 64.6372H28.7279V67.0311H31.1219V64.6372Z" fill="#232F60"/>
<path d="M40.6978 64.6372H38.3038V67.0311H40.6978V64.6372Z" fill="#232F60"/>
<path d="M45.4852 64.6372H43.0913V67.0311H45.4852V64.6372Z" fill="#232F60"/>
<path d="M47.879 64.6372H45.485V67.0311H47.879V64.6372Z" fill="#232F60"/>
<path d="M55.0611 64.6372H52.6672V67.0311H55.0611V64.6372Z" fill="#232F60"/>
<path d="M57.4549 64.6372H55.0609V67.0311H57.4549V64.6372Z" fill="#232F60"/>
<path d="M62.2433 64.6372H59.8494V67.0311H62.2433V64.6372Z" fill="#232F60"/>
<path d="M64.637 64.6372H62.2431V67.0311H64.637V64.6372Z" fill="#232F60"/>
<path d="M69.4245 64.6372H67.0306V67.0311H69.4245V64.6372Z" fill="#232F60"/>
<path d="M21.5461 67.0303H19.1521V69.4242H21.5461V67.0303Z" fill="#232F60"/>
<path d="M23.94 67.0303H21.5461V69.4242H23.94V67.0303Z" fill="#232F60"/>
<path d="M26.3339 67.0303H23.94V69.4242H26.3339V67.0303Z" fill="#232F60"/>
<path d="M33.5158 67.0303H31.1218V69.4242H33.5158V67.0303Z" fill="#232F60"/>
<path d="M38.3036 67.0303H35.9097V69.4242H38.3036V67.0303Z" fill="#232F60"/>
<path d="M40.6976 67.0303H38.3036V69.4242H40.6976V67.0303Z" fill="#232F60"/>
<path d="M43.0915 67.0303H40.6976V69.4242H43.0915V67.0303Z" fill="#232F60"/>
<path d="M47.8794 67.0303H45.4855V69.4242H47.8794V67.0303Z" fill="#232F60"/>
<path d="M52.6673 67.0303H50.2733V69.4242H52.6673V67.0303Z" fill="#232F60"/>
<path d="M55.0612 67.0303H52.6673V69.4242H55.0612V67.0303Z" fill="#232F60"/>
<path d="M64.637 67.0303H62.243V69.4242H64.637V67.0303Z" fill="#232F60"/>
<path d="M14.2446 0H2.51425H0.000610352V2.51364V14.2439V16.7576H2.51425H14.2446H16.7582V14.2439V2.51364V0H14.2446ZM14.2446 14.2439H2.51425V2.51364H14.2446V14.2439Z" fill="#232F60"/>
<path d="M66.9112 0H55.1809H52.6673V2.51364V14.2439V16.7576H55.1809H66.9112H69.4249V14.2439V2.51364V0H66.9112ZM66.9112 14.2439H55.1809V2.51364H66.9112V14.2439Z" fill="#232F60"/>
<path d="M14.2439 52.668H2.51364H0V55.1816V66.9119V69.4256H2.51364H14.2439H16.7576V66.9119V55.1816V52.668H14.2439ZM14.2439 66.9119H2.51364V55.1816H14.2439V66.9119Z" fill="#232F60"/>
<path d="M11.9705 4.78705H4.78864V11.9689H11.9705V4.78705Z" fill="#232F60"/>
<path d="M64.6374 4.78705H57.4556V11.9689H64.6374V4.78705Z" fill="#232F60"/>
<path d="M11.9703 57.4545H4.78851V64.6363H11.9703V57.4545Z" fill="#232F60"/>
</svg>
