<svg width="45" height="48" viewBox="0 0 45 48" fill="none" xmlns="http://www.w3.org/2000/svg">
<path fill-rule="evenodd" clip-rule="evenodd" d="M11.5132 0.545922C11.0157 0.323327 10.5013 0.140774 9.97471 0L8.41139 0.0992586H8.16324C6.72194 0.352637 5.44033 1.16819 4.60035 2.36651C3.76037 3.56482 3.43081 5.04774 3.68419 6.48904C3.93757 7.93033 4.75312 9.21194 5.95144 10.0519C7.14975 10.8919 8.63268 11.2215 10.074 10.9681C11.2449 10.792 12.3273 10.2417 13.1595 9.39943C13.9917 8.55715 14.529 7.46814 14.691 6.29521C14.853 5.12228 14.631 3.92843 14.0582 2.89213C13.4854 1.85583 12.5926 1.03274 11.5132 0.545922ZM7.6665 6.65979C7.46775 6.35457 7.36425 5.99713 7.36917 5.63293C7.37569 5.15023 7.57203 4.68951 7.9157 4.35049C8.25937 4.01147 8.72271 3.82142 9.20546 3.82146C9.56969 3.82149 9.92569 3.92984 10.2282 4.13274C10.5307 4.33563 10.766 4.6239 10.9042 4.96088C11.0424 5.29787 11.0773 5.66835 11.0044 6.02521C10.9315 6.38208 10.7542 6.70921 10.4949 6.965C10.2356 7.22079 9.90607 7.3937 9.54824 7.46172C9.19042 7.52975 8.82045 7.48982 8.48538 7.34703C8.1503 7.20423 7.86526 6.96501 7.6665 6.65979Z" fill="white"/>
<path fill-rule="evenodd" clip-rule="evenodd" d="M35.4352 0.545922C34.9346 0.331091 34.4207 0.148739 33.8967 0L32.3333 0.0992586H32.0852C31.0892 0.285031 30.1633 0.740675 29.4085 1.41651C28.6537 2.09235 28.099 2.96244 27.8047 3.93193C27.5104 4.90141 27.488 5.93308 27.7398 6.91444C27.9916 7.89581 28.508 8.78921 29.2327 9.49724C29.9574 10.2053 30.8626 10.7008 31.8495 10.9297C32.8365 11.1586 33.8673 11.1122 34.8297 10.7954C35.7921 10.4787 36.649 9.90387 37.3072 9.13355C37.9653 8.36324 38.3993 7.42703 38.5618 6.427C38.7583 5.23946 38.5586 4.02025 37.9936 2.95743C37.4285 1.8946 36.5295 1.0472 35.4352 0.545922ZM34.7907 4.92446C34.8787 5.15 34.9207 5.3909 34.9141 5.63293C34.9207 5.87496 34.8787 6.11586 34.7907 6.3414C34.7026 6.56694 34.5702 6.77254 34.4014 6.94604C34.2325 7.11954 34.0305 7.25743 33.8075 7.35155C33.5844 7.44568 33.3447 7.49412 33.1026 7.49403C32.8614 7.4908 32.6233 7.44009 32.4017 7.3448C32.1802 7.24952 31.9796 7.11152 31.8113 6.9387C31.6431 6.76587 31.5106 6.56161 31.4213 6.33756C31.3321 6.11352 31.2878 5.87408 31.2911 5.63293C31.2845 5.3909 31.3264 5.15 31.4145 4.92446C31.5026 4.69892 31.6349 4.49333 31.8038 4.31982C31.9727 4.14632 32.1746 4.00843 32.3977 3.91431C32.6208 3.82019 32.8605 3.77174 33.1026 3.77183C33.3447 3.77174 33.5844 3.82019 33.8075 3.91431C34.0305 4.00843 34.2325 4.14632 34.4014 4.31982C34.5702 4.49333 34.7026 4.69892 34.7907 4.92446Z" fill="white"/>
<path fill-rule="evenodd" clip-rule="evenodd" d="M44.0452 37.8706H38.6604V47.325H34.9382V37.8954H31.2905V47.325H27.5683V37.8706H22.0594C22.0052 36.7509 22.0634 35.6287 22.2331 34.5206C22.868 30.9441 23.4848 27.3675 24.099 23.8064L24.4168 21.9644C24.5076 21.4726 24.5891 20.9785 24.6706 20.4849C24.8564 19.3596 25.0417 18.237 25.3349 17.1503C25.5473 16.0488 26.1266 15.0518 26.9783 14.3218C27.83 13.5917 28.9039 13.1718 30.0249 13.1303C32.1306 12.9566 34.247 12.9566 36.3526 13.1303C37.5355 13.2666 38.6398 13.7911 39.4929 14.6217C40.346 15.4523 40.8997 16.5423 41.0674 17.7211C41.7622 22.0388 42.5067 26.3565 43.2511 30.6742C43.3031 30.9817 43.3561 31.2903 43.4093 31.6C43.6349 32.9144 43.8645 34.2516 44.0452 35.6373C44.0927 36.3809 44.0927 37.1269 44.0452 37.8706ZM40.0749 34.1732C39.9011 33.2551 39.7523 32.3617 39.6034 31.4436C39.2311 29.2599 38.8651 27.0762 38.4991 24.8925C38.1331 22.7088 37.7671 20.5251 37.3949 18.3414C37.3454 17.8919 37.1295 17.4771 36.7897 17.1786C36.4499 16.8801 36.0108 16.7196 35.5586 16.7285H30.5956C30.145 16.7251 29.7088 16.8876 29.3702 17.1851C29.0316 17.4825 28.8142 17.8941 28.7594 18.3414L28.3127 20.8229C28.032 22.462 27.7463 24.1061 27.4601 25.7531C27.1136 27.7465 26.7665 29.7439 26.4268 31.7414C26.3159 32.3326 26.2188 32.9239 26.115 33.5561C26.0794 33.773 26.043 33.9947 26.0049 34.2228L40.0749 34.1732Z" fill="white"/>
<path d="M14.6655 30.1001H11.0425V47.0733H14.7399V33.8968H18.3877V18.462C18.3848 17.7172 18.2323 16.9805 17.9391 16.2957C17.646 15.6109 17.2182 14.9921 16.6812 14.4759C16.1442 13.9597 15.5089 13.5567 14.813 13.2909C14.1172 13.025 13.3751 12.9017 12.6307 12.9284H5.60812C5.14909 12.9275 4.69137 12.9775 4.24331 13.0772C3.03989 13.3613 1.96702 14.0419 1.19733 15.0097C0.427653 15.9774 0.00592118 17.1759 0 18.4124V33.7727H3.67257V47.0733H7.34514V30.0505H3.64776V18.5365C3.61039 18.2517 3.63943 17.9622 3.73261 17.6905C3.82579 17.4188 3.98057 17.1724 4.18485 16.9706C4.38913 16.7687 4.63735 16.6168 4.9101 16.5269C5.18285 16.4369 5.47271 16.4113 5.757 16.452H12.5066C12.7958 16.4297 13.0864 16.4702 13.3585 16.5708C13.6306 16.6714 13.8776 16.8297 14.0827 17.0348C14.2878 17.2399 14.4461 17.487 14.5467 17.759C14.6473 18.0311 14.6878 18.3217 14.6655 18.6109V30.1001Z" fill="white"/>
</svg>
